<?xml version="1.0" standalone="no"?>
<!DOCTYPE svg PUBLIC "-//W3C//DTD SVG 20010904//EN"
 "http://www.w3.org/TR/2001/REC-SVG-20010904/DTD/svg10.dtd">
<svg version="1.0" xmlns="http://www.w3.org/2000/svg"
 width="310.000000pt" height="310.000000pt" viewBox="0 0 310.000000 310.000000"
 preserveAspectRatio="xMidYMid meet">
<metadata>
Created by potrace 1.11, written by Peter Selinger 2001-2013
</metadata>
<g transform="translate(0.000000,310.000000) scale(0.100000,-0.100000)"
fill="#000000" stroke="none">
<path d="M48 3083 c-14 -9 -31 -27 -37 -40 -8 -17 -11 -466 -11 -1494 0 -1354
1 -1473 17 -1499 9 -16 27 -33 40 -39 17 -8 458 -11 1494 -11 1354 0 1473 1
1499 17 16 9 33 27 39 40 8 17 11 458 11 1494 0 1354 -1 1473 -17 1499 -9 16
-27 33 -40 39 -17 8 -458 11 -1496 11 -1353 -1 -1474 -2 -1499 -17z"/>
</g>
</svg>
