<?xml version="1.0" encoding="utf-8"?>
<!-- Generator: Adobe Illustrator 18.0.0, SVG Export Plug-In . SVG Version: 6.00 Build 0)  -->
<!DOCTYPE svg PUBLIC "-//W3C//DTD SVG 1.1//EN" "http://www.w3.org/Graphics/SVG/1.1/DTD/svg11.dtd">
<svg version="1.1" id="Camada_1" xmlns="http://www.w3.org/2000/svg" xmlns:xlink="http://www.w3.org/1999/xlink" x="0px" y="0px"
	 viewBox="0 0 294.2 84.2" enable-background="new 0 0 294.2 84.2" xml:space="preserve">
<g>
	<path fill="#FEFEFE" d="M170.6,4.5l-5.3,16.8h1.5l1.3-4.4h6.5l1.4,4.4h1.6l-5.2-16.8H170.6z M168.5,15.5l2.8-9.5h0.1l2.9,9.5H168.5
		z M188.1,8.7c0-2.4-0.7-4.6-4.2-4.6c-2.7,0-4.6,1.2-4.6,4.1c0,1.7,0.2,2.7,3.4,4.7c2.4,1.5,3.9,2.1,3.9,4.4c0,1.9-1,3-2.9,3
		c-3,0-3.1-1.9-3.1-3.8h-1.5c-0.1,3.3,1.3,5,4.6,5c2.9,0,4.5-1.4,4.5-4.5c0-3.2-2.1-3.7-4.2-5.2c-1.9-1.4-3.1-1.4-3.1-3.9
		c0-2,1.1-2.6,2.9-2.6c2.3,0,2.8,1.2,2.8,3.3H188.1z M199.7,8.7c0-2.4-0.7-4.6-4.2-4.6c-2.7,0-4.6,1.2-4.5,4.1
		c0,1.7,0.2,2.7,3.4,4.7c2.4,1.5,3.9,2.1,3.9,4.4c0,1.9-1,3-2.9,3c-3,0-3.1-1.9-3.1-3.8h-1.5c-0.1,3.3,1.3,5,4.6,5
		c2.9,0,4.5-1.4,4.5-4.5c0-3.2-2.1-3.7-4.2-5.2c-1.9-1.4-3.2-1.4-3.2-3.9c0-2,1.2-2.6,2.9-2.6c2.3,0,2.8,1.2,2.8,3.3H199.7z
		 M203.9,12.8c0-4.5,0.1-7.4,3.6-7.4c3.5,0,3.6,3,3.6,7.4s0,7.5-3.6,7.5C204,20.3,203.9,17.3,203.9,12.8L203.9,12.8z M202.5,12.8
		c0,4.5,0.1,8.7,5,8.7c5,0,5.1-4.2,5.1-8.7c0-4.5-0.1-8.7-5.1-8.7C202.5,4.1,202.5,8.3,202.5,12.8L202.5,12.8z M220.3,21.5
		c4,0,4.3-3.9,4.3-5.1H223c0,2.2-0.8,3.9-2.7,3.9c-3.5,0-3.5-3-3.5-7.5s0-7.4,3.5-7.4c2.2,0,2.7,1.7,2.7,3.6h1.5
		c0-1.5-0.1-4.8-4.1-4.8c-5,0-5,4.2-5,8.7C215.3,17.3,215.3,21.5,220.3,21.5L220.3,21.5z M227.4,4.5v16.8h1.5V4.5H227.4z M236.3,4.5
		L231,21.2h1.5l1.3-4.4h6.5l1.4,4.4h1.5L238,4.5H236.3z M234.2,15.5l2.8-9.5h0.1l2.8,9.5H234.2z M254.1,9c0-1.5-0.1-4.8-4.1-4.8
		c-5,0-5.1,4.2-5.1,8.7c0,4.2,0.1,8.1,4,8.6l-1.2,1.6l0.5,0.3c0.2-0.1,0.5-0.2,0.9-0.2c0.6,0,1.1,0.3,1.1,0.9c0,0.8-0.8,1-1.5,1
		c-0.5,0-1-0.1-1.5-0.3l-0.3,0.7c0.7,0.3,1.3,0.5,2.1,0.5c1.4,0,2.6-0.4,2.6-1.9c0-1.1-0.9-1.7-1.8-1.7c-0.3,0-0.5,0.1-0.7,0.1
		l-0.1,0l0.7-1c0.1,0,0.1,0,0.3,0c3.9,0,4.2-3.9,4.2-5.1h-1.6c0,2.2-0.7,3.9-2.7,3.9c-3.5,0-3.6-3-3.6-7.5s0-7.4,3.6-7.4
		c2.1,0,2.6,1.7,2.6,3.6H254.1z M260.8,4.5l-5.3,16.8h1.5l1.3-4.4h6.6l1.3,4.4h1.6l-5.2-16.8H260.8z M258.7,15.5l2.8-9.5h0l2.9,9.5
		H258.7z M258.9,2.4c0.1-0.5,0.5-1.3,1-1.3c0.5,0,1,0.4,1.6,0.6c0.6,0.3,1.2,0.7,1.8,0.7s1-0.3,1.4-0.8c0.3-0.5,0.5-1.1,0.5-1.6
		h-0.9c-0.1,0.6-0.4,1.2-1,1.2c-0.5,0-1-0.3-1.6-0.6C261.2,0.4,260.6,0,260,0c-0.6,0-1.1,0.3-1.4,0.8c-0.4,0.5-0.5,1-0.6,1.6H258.9z
		 M270.9,12.8c0-4.5,0-7.4,3.6-7.4c3.5,0,3.6,3,3.6,7.4s-0.1,7.5-3.6,7.5C271,20.3,270.9,17.3,270.9,12.8L270.9,12.8z M269.4,12.8
		c0,4.5,0.1,8.7,5.1,8.7c5,0,5-4.2,5-8.7c0-4.5-0.1-8.7-5-8.7C269.5,4.1,269.4,8.3,269.4,12.8L269.4,12.8z M168,42.7v-6.2h2.9
		c1.2,0,2.7,0.1,2.7,2.8c0,1.9-0.7,3.4-2.8,3.4H168z M171.3,52c2.8,0,4.2-1.6,4.2-4.6c0-2.1-0.6-3.6-2.8-4v-0.1c2.1-0.6,2.4-2,2.4-4
		c0-2.9-1.3-4-4-4h-4.6V52H171.3z M168,44h3c2.6,0,3,2,3,3.5c0,2.5-1.2,3.3-3.6,3.3H168V44z M182.4,43.9c3.2,0,2.7,3.2,2.8,3.9
		c0,0.9,0.1,3.7,0.2,4.2h1.4c-0.1-0.6-0.2-1.3-0.2-1.9c0-6-0.1-6.3-2.5-6.7v-0.1c2.3-0.5,2.6-1.9,2.6-4c0-2.9-0.8-4-4-4h-4.6V52h1.5
		v-8.1H182.4z M179.6,36.5h3c1.8,0,2.7,0.5,2.7,2.7c0,2.8-1,3.4-3.3,3.4h-2.4V36.5z M193.7,35.3L188.5,52h1.5l1.3-4.4h6.5l1.4,4.4
		h1.5l-5.2-16.7H193.7z M191.7,46.4l2.8-9.5h0.1l2.8,9.5H191.7z M211.3,39.5c0-2.4-0.7-4.6-4.2-4.6c-2.7,0-4.6,1.2-4.5,4.1
		c0,1.7,0.2,2.7,3.4,4.7c2.4,1.5,3.9,2.1,3.9,4.4c0,1.9-0.9,3-2.9,3c-3,0-3.1-1.9-3.1-3.8h-1.5c-0.1,3.3,1.3,5,4.6,5
		c2.9,0,4.5-1.5,4.5-4.5c0-3.3-2.1-3.7-4.2-5.2c-1.9-1.4-3.2-1.4-3.2-3.9c0-2,1.1-2.6,2.9-2.6c2.3,0,2.8,1.2,2.8,3.3H211.3z
		 M214.5,35.3V52h1.5V35.3H214.5z M226.4,52v-1.2h-5.6V35.3h-1.5V52H226.4z M228.6,35.3V52h7.7v-1.2H230v-6.7h5.8v-1.2H230v-6.3h6.1
		v-1.2H228.6z M238.9,35.3V52h1.5V35.3H238.9z M248.1,43.9c3.2,0,2.7,3.2,2.7,3.9c0,0.9,0.1,3.7,0.3,4.2h1.4c0-0.6-0.1-1.3-0.1-1.9
		c0-6-0.1-6.3-2.5-6.7v-0.1c2.3-0.5,2.6-1.9,2.6-4c0-2.9-0.8-4-4.1-4h-4.6V52h1.5v-8.1H248.1z M245.3,36.5h3c1.8,0,2.6,0.5,2.6,2.7
		c0,2.8-1,3.4-3.3,3.4h-2.4V36.5z M259.4,35.3L254.2,52h1.5l1.3-4.4h6.5l1.3,4.4h1.6l-5.2-16.7H259.4z M257.4,46.4l2.8-9.5h0.1
		l2.8,9.5H257.4z M275.1,36.5h2c4.1,0,4.8,1.4,4.8,6.2c0,6.8-0.4,8-4.9,8h-1.8V36.5z M273.6,52h3.8c5,0,5.8-2.7,5.8-8.3
		c0-5.7-0.6-8.4-5.2-8.4h-4.4V52z M286.5,35.3V52h7.7v-1.2H288v-6.7h5.8v-1.2H288v-6.3h6.1v-1.2H286.5z M167.9,74.5
		c0-4.5,0-7.4,3.6-7.4c3.5,0,3.6,3,3.6,7.4s-0.1,7.5-3.6,7.5C167.9,81.9,167.9,78.9,167.9,74.5L167.9,74.5z M166.4,74.5
		c0,4.5,0.1,8.7,5.1,8.7c5,0,5-4.2,5-8.7c0-4.5-0.1-8.7-5-8.7C166.4,65.8,166.4,70,166.4,74.5L166.4,74.5z M181.1,67.4h1.9
		c4.1,0,4.8,1.4,4.8,6.2c0,6.9-0.5,8.1-4.9,8.1h-1.8V67.4z M179.6,82.9h3.8c5.1,0,5.9-2.7,5.9-8.3c0-5.7-0.6-8.4-5.2-8.4h-4.5V82.9z
		 M193.6,74.5c0-4.5,0.1-7.4,3.6-7.4c3.5,0,3.6,3,3.6,7.4s-0.1,7.5-3.6,7.5C193.7,81.9,193.6,78.9,193.6,74.5L193.6,74.5z
		 M192.2,74.5c0,4.5,0,8.7,5,8.7s5-4.2,5-8.7c0-4.5,0-8.7-5-8.7S192.2,70,192.2,74.5L192.2,74.5z M206.9,82.9V68.1l0-0.1l6.8,14.9
		h2.2V66.1h-1.5v14.7l-0.1,0l-6.8-14.7h-2.3v16.7H206.9z M222.2,82.9h1.5V67.4h4.1v-1.2h-9.6v1.2h4.1V82.9z M231,74.5
		c0-4.5,0-7.4,3.6-7.4c3.5,0,3.6,3,3.6,7.4s-0.1,7.5-3.6,7.5C231,81.9,231,78.9,231,74.5L231,74.5z M229.5,74.5
		c0,4.5,0.1,8.7,5.1,8.7c5,0,5-4.2,5-8.7c0-4.5-0.1-8.7-5-8.7C229.5,65.8,229.5,70,229.5,74.5L229.5,74.5z M249.6,82.9v-1.2H244
		V66.1h-1.5v16.7H249.6z M252.9,74.5c0-4.5,0-7.4,3.5-7.4c3.5,0,3.6,3,3.6,7.4s0,7.5-3.6,7.5C252.9,81.9,252.9,78.9,252.9,74.5
		L252.9,74.5z M251.4,74.5c0,4.5,0.1,8.7,5,8.7c5,0,5.1-4.2,5.1-8.7c0-4.5-0.1-8.7-5.1-8.7C251.5,65.8,251.4,70,251.4,74.5
		L251.4,74.5z M272.5,81.4c-0.8,0.3-1.9,0.5-3.1,0.5c-3.6,0-3.6-3.2-3.6-7.5c0-4.2,0-7.4,3.6-7.4c2.4,0,3.3,1.2,3.3,3.3h1.5
		c0.1-3.2-1.6-4.6-4.8-4.6c-5.4,0-5,5.5-5,8.7c0,3.3-0.4,8.7,5,8.7c1.6,0,3.1-0.2,4.6-0.7v-8.4h-4.9v1.2h3.4V81.4z M277.6,66.1v16.7
		h1.5V66.1H277.6z M286.5,66.1l-5.3,16.7h1.5l1.3-4.4h6.5l1.4,4.4h1.5l-5.2-16.7H286.5z M284.5,77.2l2.8-9.5h0.1l2.8,9.5H284.5z"/>
	<path fill-rule="evenodd" clip-rule="evenodd" fill="#FEFEFE" d="M76.6,41.1H65.3v-7.6h12.9c1,0,2,0.2,2.6,0.6
		c1.3,0.7,1,3.9,0.5,4.8c-0.1,0.2-0.3,0.5-0.4,0.7C80.1,40.8,78,41.1,76.6,41.1L76.6,41.1z M54.9,52.7h-0.7c0,0-0.1,0-0.1,0
		c-1.6-0.2-1.6,0.4-1.6-0.9c0-1.8-0.1-3.3-0.1-5l-0.1-35.7l-0.1-1.6c0-1.1,0-2.3,0-3.4c0-0.6,0.1-1.1,0.1-1.6c0-0.8-0.1-1.4,0.2-1.4
		h25.1c0.6,0,2.2,0.1,2.9,0.2l2.7,0.3c0.8,0.1,2.5,0.6,3.2,0.9C87.9,5,89,5.7,90.3,6.7c1.6,1.3,2.6,2.8,3.4,4.6c0.4,0.9,0.7,2,1,3.1
		c0.2,0.9,0.2,2.2,0.3,2.8c0.2,1.1-0.2,3.7-0.4,4.5c-0.5,1.6-1.2,3.1-2.5,4.3c0,0,0,0.1-0.1,0.1c-0.4,0.4-0.5,0.5-1,0.9
		c-0.1,0.1-0.1,0.1-0.3,0.2c-0.3,0.2-0.9,0.7-1,0.9c0.1,0.3,0.3,0.4,0.5,0.5c0.2,0.1,0.3,0.3,0.5,0.4c1.3,1.2,0.9,0.9,1.8,1.9
		l0.8,1.1c0.5,0.9,0.8,1.5,1.2,2.6c0.8,2.4,0.7,6.1,0.1,8.6c-0.1,0.7-0.1,0.8-0.3,1.5c-0.3,1-0.9,2.1-1.5,3c-0.4,0.5-0.9,1-1.3,1.4
		c-3.3,2.9-8.4,3.5-12.7,3.5c-0.4,0-0.7-0.1-1-0.1c-0.4,0.1-19.1,0-21.2,0c-0.3,0-0.6,0-0.9,0C55.5,52.6,55.2,52.6,54.9,52.7
		L54.9,52.7z M76.5,22h-11c-0.2,0-0.2-0.1-0.2-0.2v-7.1c2.2,0,12.8-0.1,14.1,0.1c0.6,0.1,0.8,0.2,1.2,0.4c1,0.5,0.9,1.7,0.9,2.9
		c0,2-1.3,3.4-3,3.7C77.8,21.9,77.3,22,76.5,22L76.5,22z M99.3,43.6c0-2,0.9-3.2,1-3.9h0.2c0.1,0.2,0.3,0.5,0.4,0.7
		c0.2,0.3,0.3,0.4,0.5,0.7c0.4,0.6,1,1.5,1.5,2c0.2,0.2,0.3,0.5,0.5,0.7l0.2,0.2c0,0,0,0,0,0c0.2,0.2,0.2,0.2,0.4,0.4
		c0.2,0.2,0.5,0.4,0.5,0.7c-0.3,0-0.7,0.1-1.1,0.2C101.9,45.5,99.3,45.8,99.3,43.6L99.3,43.6z M127.4,20.7c0.1-0.3,0-0.3,0-0.6
		c1.4-0.1,0.7,0.1,1.2,0.1c0.4,0,0.5-0.1,0.6-0.1c0.1,0,0.5,0,0.7,0l0.3-0.4c0.1-0.1,0,0.1,0.1-0.1c0-0.1,0-0.1,0-0.1
		c0,0,0-0.1,0.1-0.1c0,0,0,0,0-0.1c0,0,0,0,0,0l0-0.1c0.2,0,0.7-0.1,0.8,0.1l0.1,0.3c0.1,0.3,0.1,0.3,0.2,0.5l0.1,0.1
		c0.4,0.5,0.3,0.2,0.4,0.4c0,0.1,0.1-0.1,0.1,0.2c0,0-0.1,0.1-0.1,0.1c-0.1,0.2-0.3,0.3-0.4,0.4c-0.1,0.1-0.1,0.1-0.3,0.2
		c-0.1,0.1-0.1,0-0.1,0.1c-0.1,0.2-0.1,0.3-0.1,0.4l-0.2,0.5c0,0.1,0,0.1-0.1,0.1l-0.5,0.4c-0.1,0.1,0,0-0.1,0.1
		c0.1,0.3,0.2,0.4,0.3,0.6l0.4-0.5c0.3,0,0.1,0,0.3,0.1c0.1,0.1,0.1,0.2,0.3,0.2c0.3-0.1,0.1-0.2,0.5-0.1h0.6
		c-0.1,0.3-0.1,0.2-0.1,0.4c0.1,0.1,0,0,0.1,0.1c0.4-0.7,0.2-0.5,0.7-0.9c0.4-0.3,0.2-0.8,0.8-0.7c0.2,0,0.9,0.3,1.1,0.4
		c0.5,0.1,0.7,0.2,1.1,0.5c0,0.4-0.1,1.2,0.5,0.8c0.3-0.2,0.5-0.5,0.8-0.3c1.7,0.9,1.6-0.1,2.3,0.4c0.1,0.1,0.1,0.1,0.2,0.1
		c0.9,0.5,0.8,0.5,1.4,1c0.1,0.1,0.2,0.1,0.3,0.2c0,0,0,0,0.1,0l0.1,0.1c0.4,0.2,0.9,0.2,1.3,0.4c0.1,0.1,0.2,0.2,0.3,0.3
		c0.5,0.6,0.8,1.3,0.6,2.1c-0.1,0.2-0.2,0.3-0.3,0.6c-0.1,0.4-0.1,0.3-0.4,0.6c-0.2,0.3-0.4,0.7-0.7,1.1c-0.4,0.5-0.5,0.5-0.6,0.7
		l-0.6,0.8c-0.1,0.1-0.1-0.1-0.2,0.2c-0.1,0.2-0.3,0.9-0.4,1.1c0,0.3,0.1,0.6,0.1,0.9c0.1,1.6-0.3,0.9-0.3,2.2
		c0,0.7-0.3,1.8-0.6,2.3c-0.1,0.2-0.3,0.3-0.4,0.5c-0.2,0.3-0.1,0.5-0.1,0.9c-0.7,0.3-0.4,0.2-0.9,0.8h-1.6
		c-0.3,0.3-0.4,0.5-0.8,0.7c-0.2,0.1-0.2,0-0.4,0.1c-0.2,0.1-0.3,0.3-0.5,0.4c-0.2,0.1-0.4,0.2-0.6,0.4c-0.2,0.3-0.7,0.8-0.7,1.2
		c-0.1,0.5,0.1,1.4,0,1.9c-0.1,0.5-0.5,0.7-0.8,1.1c-0.3,0.6,0,0.8-0.8,1.1c-0.4,0.2-0.9,0.3-1.4,0.5s-0.7,0-1-0.2
		c-0.1-0.1-0.2-0.1-0.2-0.3c-0.4,0.3-0.9-0.5-0.9-0.5c0.1-0.3,0.1-0.3,0.3-0.5c0.1-0.1,0.2-0.3,0.3-0.5c0.4-0.5,0.4-0.6,0.7-0.9
		c0.7-0.6,0.9-1.5,0-2c-0.1-0.3-0.1-0.5-0.1-0.7c-0.1-0.2-0.1-0.3-0.2-0.5l-0.1-0.1c-0.4,0-0.1,0.1-0.5,0.1
		c-0.1-1.4-0.1-1.4-1.5-1.4c-0.2,0-0.2-0.3-0.3-0.5c-0.5-2.2-0.1-2-0.1-2.9c0-0.4-0.6-0.4-0.7-1c0-0.2,0-0.1,0-0.3
		c-0.1-0.3,0,0-0.1-0.3c-0.3,0.2-0.9,0.1-1.2,0.1c-0.1-0.7-0.2-0.9-0.2-1.8c-0.1-0.1-0.3-0.3-0.5-0.4c-0.5-0.2-0.3,0.2-0.7,0
		c-0.4-0.2-0.7-0.5-1.2-0.7c-0.4-0.1-0.4,0.1-0.8-0.1c-0.4-0.2-0.3-0.5-0.6-0.9c-0.1-0.2-0.1,0-0.2-0.3c-0.1-0.2,0-0.6-0.1-0.9
		c-0.2,0-0.9,0.2-1,0.2c-0.2,0.1-0.5,0.4-0.7,0.6c-0.4,0.4-0.3,0.3-0.9,0.4c-0.1,0-0.5,0.1-0.6,0.1c-0.3,0.1-0.1,0.1-0.5,0.1
		c-0.1-0.5,0.1-0.8-0.3-1.1c-0.3,0-0.5,0.3-0.9,0.4c0,0-0.1-0.1-0.1-0.1c-0.7-0.5-0.5,0-0.9-0.7c-0.2-0.5-0.5-0.7-0.6-1.2
		c0-0.4,0.1-0.4,0.2-0.6c0.1-0.2,0.1-0.5,0.2-0.7c0.2-0.7,0.1-0.6,0.7-1l0.5-0.3c0.4-0.3,0.4-0.1,0.6-0.2c0.4-0.1,0.5-2.4,0.4-2.9
		c-0.1-0.6-0.6-0.7-0.5-1.3c0.2-0.1,0.3-0.1,0.5-0.2c-0.1-0.5-0.4-0.2-0.4-0.7c0.2-0.1,0.3,0,0.5-0.1c0.2-0.1,0,0,0.2-0.1
		c0.4-0.1,0.3-0.1,0.7,0c0.1-0.1,0.1-0.2,0.3-0.3c0.3,0.3,0.4,0.8,0.9,0.9c0.1,0,0.7-0.1,0.8-0.1c0.3-0.1,0.1,0,0.3-0.2
		c0.4-0.4,0.6-0.4,0.8-1c0.1-0.3,0-0.4-0.1-0.7c-0.1-0.2-0.1-0.2-0.1-0.3c-0.1-0.2-0.2-0.4-0.3-0.7c0.3,0,0.3,0.1,0.5,0.1
		c0.6,0.2,0.5,0.2,1-0.2c0.4-0.3,1.6-0.3,2.1-0.3c0,0.6-0.3,0.9-0.1,1.3c0.1,0.2,0.1,0.5,0.3,0.7c0,0,0,0,0,0l0.1,0.1c0,0,0,0,0,0
		c0,0,0,0,0,0c0.8,0.7,0.6,0.1,1.2-0.2C127.4,20.3,126.7,20.7,127.4,20.7L127.4,20.7z M135.8,7.4c0.1-0.2,0.6-0.3,1.1-0.6l2.4-0.9
		c0.4-0.1,0.8-0.2,1.3-0.3c1-0.3,1.8-0.3,2.9-0.2c0.6,0.1,1.2,0.5,1.4,1.1c0.4,1.4-0.5,3.6-1,4.7c-0.1,0.3-0.2,0.5-0.4,0.9l-1.2,2
		c-0.1,0.2-0.1,0.3-0.3,0.3c-0.1-0.3-0.7-1.2-0.9-1.5l-1.1-1.4c-0.1-0.2-0.3-0.3-0.4-0.4c-0.2-0.2-0.2-0.3-0.4-0.5
		c-0.4-0.4-0.6-0.7-1.3-1.3L137.5,9c-0.4-0.4-1-0.9-1.5-1.3C135.8,7.5,135.9,7.6,135.8,7.4L135.8,7.4z M100.4,39.4
		c-0.2-0.2-0.7-1.1-0.8-1.4c-0.3-0.6-0.2-0.6,0.1-1l0.4-0.7c0,0,0,0,0-0.1l0.7-1c0.6-0.9,1.1-1.9,1.7-2.7c0.3-0.3,0.4-0.7,0.7-1
		l1.1-1.4c0.1-0.1,0.1-0.1,0.1-0.2l2.8-3.3c0.1-0.1,0.1-0.2,0.3-0.3l1.9-2c0.1-0.1,0-0.1,0.1-0.1l4.1-4c0.3-0.2,0.4-0.4,0.6-0.6
		l0.8-0.7c0.6-0.5,1.2-1.1,1.8-1.6l3.3-2.7c0,0,0,0,0.1,0c0.4-0.4,2.2-1.7,2.7-2c0.2-0.2,0.1-0.1,0.3-0.2c0.1-0.1,0,0,0.1-0.1l1-0.7
		l0,0l1.1-0.8c0.1-0.1,0.2-0.1,0.3-0.2l5.4-3.1c0.7-0.3,1.6-0.7,2.2-1.1c0.1-0.1,0.1-0.1,0.4-0.1c0.4,0.1,1.6,1,1.7,1.2
		c-0.1,0.2-0.4,0.3-0.7,0.4c-0.3,0.1-0.4,0.2-0.7,0.4c-0.2,0.1-0.5,0.2-0.7,0.3l-1.6,0.9c-0.6,0.3-1.2,0.7-1.7,1
		c-0.2,0.1-0.5,0.2-0.7,0.4l-0.2,0.1c0,0,0,0-0.1,0c-1.2,0.7-2.4,1.5-3.5,2.4l-0.5,0.3c0,0-0.1,0.1-0.1,0.1l-6.5,5
		c-0.1,0.1-0.2,0.1-0.3,0.2l-1.1,1c-0.1,0.1-0.1,0.1-0.3,0.2c-0.2,0.2-0.4,0.3-0.6,0.5c-0.1,0.1-0.2,0.2-0.3,0.3
		c-0.1,0.1-0.2,0.1-0.3,0.3l-0.8,0.8c-0.1,0.1-0.1,0.1-0.1,0.1c0,0,0,0,0,0.1l-2,1.8c-1.3,1.2-2.7,2.6-3.9,4l-0.1,0.2
		c-0.3,0.4-0.7,0.7-1,1l-0.3,0.3c-0.1,0.1-0.1,0-0.1,0.2c-0.2,0.4-0.6,0.7-0.9,1l-0.3,0.4c-0.3,0.3-0.2,0.4-0.4,0.6l-0.2,0.2
		c0,0,0,0,0,0.1c-0.2,0.2-1.7,2.4-1.9,2.6l-0.1,0.1c-0.3,0.4-1,1.4-1.3,1.9l-1.5,2.6C100.6,39.2,100.5,39.3,100.4,39.4L100.4,39.4z
		 M97.1,26.7c0,1.3,0,2.7,0.2,4c0.1,0.9,0.3,1.6,0.5,2.4c0.3,1.1,0.6,2.2,1,3.2c0.5,1.4,0.5,1-0.1,2.2c-0.7,1.5-1.5,3.4-1.5,5.1
		c0,0.5,0.1,1.1,0.2,1.4c0.1,0.4,0.4,0.8,0.7,1.1c1.3,1.5,3.6,1.4,5.4,1c0.5-0.1,2.6-0.7,2.8-0.7c0.2,0,0.9,0.6,1,0.7
		c0.9,0.7,1.8,1.2,2.7,1.7c0.8,0.5,1.8,0.8,2.7,1.2c0.7,0.3,1.6,0.6,2.4,0.8c0.9,0.2,1.7,0.4,2.6,0.6c0.2,0,0.4,0,0.6,0.1
		c0.2,0,0.4,0.1,0.6,0.1c3.6,0.4,7.2-0.1,10.6-1.3c0.2-0.1,0.3-0.2,0.5-0.3c0.3-0.1,0.7-0.3,1-0.4c2.1-0.9,4.7-2.6,6.3-4.2l1.1-1.1
		c2-2.3,3.2-3.9,4.6-6.7c0.2-0.4,0.3-0.7,0.5-1s0.3-0.7,0.4-1.1c0.5-1.5,1-3.2,1.2-4.8c0.1-0.9,0.3-1.8,0.3-2.7
		c0-1.9-0.1-2.9-0.3-4.7c-0.1-0.9-0.4-1.7-0.5-2.5c-0.2-0.8-0.5-1.6-0.8-2.3c-1.2-3.3-1.2-1.3,0.2-4c0.6-1.2,1.2-2.2,1.8-3.4
		c0.2-0.5,0.4-1,0.5-1.5c0.1-0.3,0.1-0.5,0.2-0.8c0.5-1.9,0-4-1.8-4.9c-1-0.5-2.4-0.5-3.5-0.3c-2.3,0.3-4.1,1.1-6.2,2
		c-1.9,0.8-0.9,0.8-2.7-0.1c-0.9-0.5-1.8-0.9-2.7-1.2c-0.2-0.1-0.5-0.2-0.7-0.3c-2.2-0.7-4.4-1.2-6.7-1.2c-0.9,0-1.4-0.1-2.4,0
		c-1.3,0.1-2.7,0.3-3.9,0.6l-1.2,0.3c-1.8,0.5-3.7,1.3-5.3,2.2l-1.4,0.8c-0.2,0.1-0.3,0.2-0.5,0.3c-0.7,0.5-1.5,1-2.1,1.6
		c-0.2,0.2-0.2,0.2-0.4,0.4c-0.8,0.7-1.5,1.6-2.2,2.4c-0.7,0.8-1.4,1.6-1.9,2.6c-1.5,2.6-1.8,3.1-2.7,5.9c-0.1,0.2-0.1,0.1-0.1,0.3
		c-0.1,0.4-0.2,0.8-0.3,1.2c-0.2,0.8-0.4,1.7-0.5,2.5C97.2,24.7,97.1,25.7,97.1,26.7L97.1,26.7z M25.9,19h0.3
		c0.1,0.4,0.3,0.9,0.5,1.3l2.6,6.9c0.1,0.5,1,2.5,1,2.8H22c0-0.4,1.6-4.7,1.9-5.5c0.2-0.5,0.3-0.9,0.5-1.4
		C24.6,22.5,25.8,19.4,25.9,19L25.9,19z M46.7,52.7h-0.3c-0.4,0-0.6-0.1-1.1-0.1h-6.5c-0.1-0.2-0.2-0.4-0.3-0.7
		c-0.1-0.3-0.2-0.3-0.3-0.7c-0.1-0.3-0.2-0.4-0.3-0.7c-0.1-0.3-0.2-0.3-0.3-0.7c-0.1-0.3-0.2-0.4-0.3-0.7l-1-2.8
		c-0.1-0.3-0.2-0.5-0.3-0.7l-1-2.7c-0.2-0.5-0.3-1-0.5-1.4c-0.7,0-1.3,0.1-2.1,0.1H17.6c-0.2,0.7-1.6,4.5-2,5.6
		c-0.3,0.8-1.7,5-2,5.5c-0.9,0-1.8,0-2.7,0c-0.4,0-0.6,0.1-0.9,0.1H9.7c-0.4,0-0.7-0.1-1.2-0.1l-5.7,0.1c-0.2,0-0.3-0.1-0.5-0.1
		c-0.3,0-0.3,0.1-0.5,0.1L0,52.6c0-0.4,0.1-0.6,0.3-0.9l0.6-1.6c0.3-0.8,0.6-1.5,0.9-2.3c0.4-1,0.8-2.1,1.2-3.1L4,42.4
		c0.4-1,0.8-2.1,1.2-3.1c0.1-0.3,0.2-0.5,0.3-0.8l1.7-4.3c0.1-0.2,0.1-0.2,0.2-0.4L8,32.3c0.1-0.2,0.3-0.5,0.3-0.8l1.5-3.8
		c0.1-0.3,0.2-0.5,0.3-0.8c0.1-0.2,0.1-0.3,0.2-0.4c0.2-0.5,1.8-4.5,2-5c0.2-0.6,1.8-4.6,2.2-5.5l0.5-1.2c0.7-1.8,1.6-4,2.3-5.8
		c0.3-0.8,0.6-1.6,1-2.4c0.1-0.3,0.2-0.5,0.3-0.7c0.4-0.8,0.6-1.6,0.9-2.3c0.1-0.2,0.2-0.6,0.5-0.6h11.7c0.2,0,0.2,0.1,0.3,0.3
		C31.9,3.5,32,3.6,32,3.7c0.2,0.5,0.4,1,0.7,1.6c0.3,0.7,0.7,1.6,1,2.4c0.6,1.6,1.2,3.1,1.9,4.6c0.9,2.1,1.6,4.1,2.5,6.2
		c0.2,0.5,0.4,1.1,0.7,1.6l0.7,1.5c0.5,1.4,1.2,2.9,1.8,4.3c0.1,0.1,0.1,0.2,0.1,0.4l1.3,3.1c0.8,1.7,1.5,3.8,2.2,5.4
		c0.5,1,1.2,2.9,1.6,3.9c0.4,1,0.9,2.1,1.3,3.1c0.8,2.1,1.6,4.2,2.6,6.2l0.6,1.5c0.2,0.6,0.4,1,0.7,1.6c0.1,0.1,0.1,0.3,0.1,0.4
		c0.1,0.1,0.1,0.2,0.2,0.4c0.1,0.2,0.3,0.5,0.3,0.8c-1.2,0-2.6,0-3.7,0.1c-0.2,0-0.3-0.1-0.6-0.1C47.4,52.6,47.1,52.7,46.7,52.7
		L46.7,52.7z"/>
	<path fill="#FEFEFE" d="M38.4,70.4c0.1-1.4-0.1-2.5-0.6-3.5c-0.5-0.9-1.2-1.6-2.2-2.1s-2.1-0.7-3.5-0.7c-1.1,0-2,0.1-2.8,0.4
		c-0.8,0.3-1.4,0.6-1.9,1.1c-0.5,0.5-0.9,1-1.2,1.6c-0.3,0.6-0.5,1.3-0.6,2c-0.1,0.7-0.2,1.5-0.3,2.3c0,0.8-0.1,1.6,0,2.4
		c0,1.5,0,2.8,0.1,3.9c0.1,1.1,0.3,2.1,0.6,2.9c0.3,0.8,0.7,1.4,1.3,2s1.3,0.9,2.2,1.1c0.9,0.3,2.1,0.4,3.4,0.4c0.4,0,0.9,0,1.4-0.1
		c0.5,0,1-0.1,1.6-0.2c0.5-0.1,1-0.1,1.5-0.2c0.5-0.1,0.8-0.1,1.1-0.2v-9.9h-6.3v3h2.2V81c-0.3,0.1-0.7,0.2-1,0.3
		c-0.4,0.1-0.7,0.1-1,0.1c-0.5,0-0.9-0.1-1.2-0.2c-0.3-0.1-0.6-0.3-0.8-0.6c-0.2-0.3-0.4-0.7-0.5-1.2c-0.1-0.5-0.2-1.2-0.3-2.1
		c-0.1-0.8-0.1-1.9-0.1-3.1c0-0.8,0-1.5,0-2.2c0-0.7,0.1-1.4,0.1-2c0.1-0.6,0.2-1.1,0.4-1.6c0.2-0.5,0.4-0.8,0.7-1
		c0.3-0.3,0.7-0.4,1.2-0.4c0.5,0,1,0.1,1.3,0.3c0.3,0.2,0.6,0.4,0.7,0.7s0.3,0.7,0.3,1.1c0.1,0.4,0.1,0.9,0.1,1.3H38.4z M55.6,81.3
		c-0.6,0-1-0.1-1.4-0.4s-0.6-0.7-0.8-1.3c-0.2-0.6-0.3-1.3-0.3-2.2c-0.1-0.9-0.1-2-0.1-3.2s0-2.3,0.1-3.2c0.1-0.9,0.2-1.6,0.3-2.2
		c0.2-0.6,0.5-1,0.8-1.3c0.3-0.3,0.8-0.4,1.4-0.4s1,0.1,1.4,0.4c0.3,0.3,0.6,0.7,0.8,1.3c0.2,0.6,0.3,1.3,0.4,2.2
		c0.1,0.9,0.1,2,0.1,3.2s0,2.3-0.1,3.2S58,79,57.8,79.6c-0.2,0.6-0.4,1-0.8,1.3C56.7,81.2,56.2,81.3,55.6,81.3L55.6,81.3z
		 M55.6,84.2c1.1,0,2.1-0.1,2.8-0.4s1.4-0.6,1.9-1.1c0.5-0.5,0.9-1,1.2-1.6c0.3-0.7,0.5-1.3,0.6-2.1c0.1-0.8,0.2-1.6,0.2-2.4
		c0-0.8,0.1-1.6,0.1-2.5c0-0.9,0-1.7-0.1-2.5c0-0.8-0.1-1.6-0.2-2.4c-0.1-0.7-0.3-1.4-0.6-2.1c-0.3-0.6-0.7-1.2-1.2-1.6
		c-0.5-0.5-1.1-0.8-1.9-1.1c-0.8-0.3-1.7-0.4-2.8-0.4c-1.1,0-2,0.1-2.8,0.4c-0.8,0.3-1.4,0.6-1.9,1.1c-0.5,0.5-0.9,1-1.1,1.6
		c-0.3,0.7-0.5,1.3-0.6,2.1C49.1,70,49,70.8,49,71.6c0,0.8,0,1.7,0,2.5c0,0.9,0,1.7,0,2.5c0,0.8,0.1,1.6,0.2,2.4
		c0.1,0.7,0.3,1.4,0.6,2.1c0.3,0.6,0.7,1.2,1.1,1.6c0.5,0.5,1.1,0.8,1.9,1.1C53.6,84.1,54.5,84.2,55.6,84.2L55.6,84.2z M76.8,83.9
		V64.4h-4.1v19.5H76.8z M90,83.9l1.1-4.3h5.6l1.1,4.3h4.3l-5.3-19.5h-5.4l-5.4,19.5H90z M95.8,76.6h-3.9l1.8-8.4h0.1L95.8,76.6z
		 M94.1,58.6l-2.4,3.9h1.8l4.3-3.9H94.1z M123.2,78.6c0-0.8-0.1-1.4-0.4-2c-0.2-0.6-0.5-1.1-0.9-1.6c-0.4-0.4-0.8-0.8-1.3-1.2
		c-0.5-0.3-1-0.7-1.5-0.9s-1-0.6-1.5-0.8c-0.5-0.3-0.9-0.6-1.3-0.9c-0.4-0.3-0.7-0.6-0.9-1c-0.2-0.3-0.3-0.8-0.3-1.2
		c0-0.7,0.2-1.2,0.6-1.5c0.4-0.4,0.9-0.5,1.5-0.5c0.4,0,0.7,0.1,1,0.3c0.3,0.2,0.5,0.4,0.6,0.7c0.1,0.3,0.2,0.6,0.3,1
		c0,0.3,0.1,0.7,0.1,1.1h4c0.1-1.4-0.1-2.5-0.5-3.3c-0.4-0.9-1-1.5-1.9-1.9c-0.9-0.4-2-0.6-3.3-0.6c-1.2,0-2.3,0.1-3.1,0.4
		c-0.9,0.3-1.5,0.7-2,1.2c-0.5,0.5-0.9,1.1-1,1.8c-0.2,0.7-0.3,1.4-0.3,2.1c0,0.7,0.1,1.4,0.4,2c0.2,0.6,0.5,1,0.9,1.5
		c0.4,0.5,0.8,0.9,1.3,1.2c0.5,0.4,1,0.7,1.5,1c0.5,0.3,1,0.6,1.5,0.9c0.5,0.3,0.9,0.6,1.3,0.9c0.4,0.3,0.7,0.6,0.9,1
		c0.2,0.4,0.3,0.7,0.3,1.2c0,0.4-0.1,0.8-0.2,1.2c-0.1,0.3-0.4,0.6-0.7,0.8c-0.3,0.2-0.7,0.3-1.2,0.3c-0.5,0-1-0.1-1.3-0.3
		c-0.3-0.2-0.5-0.4-0.7-0.7c-0.1-0.3-0.2-0.7-0.3-1.1c0-0.4-0.1-0.9,0-1.3h-4.1c-0.1,0.7-0.1,1.3,0,2c0.1,0.6,0.2,1.2,0.5,1.7
		c0.2,0.5,0.6,1,1,1.4c0.4,0.4,1,0.7,1.7,0.9c0.7,0.2,1.6,0.3,2.6,0.3c0.6,0,1.2,0,1.9-0.1c0.6-0.1,1.2-0.2,1.8-0.4
		c0.6-0.2,1.1-0.5,1.6-0.9c0.5-0.4,0.8-1,1.1-1.6C123.1,80.4,123.2,79.6,123.2,78.6L123.2,78.6z"/>
</g>
</svg>
